<?xml version="1.0" encoding="UTF-8"?><!DOCTYPE svg PUBLIC "-//W3C//DTD SVG 1.1//EN" "http://www.w3.org/Graphics/SVG/1.1/DTD/svg11.dtd"><svg xmlns="http://www.w3.org/2000/svg"><defs>
        <clipPath id="a">
            <path d="M0 0h28v28H0z"/>
        </clipPath>
    </defs><symbol id="icon-libra" viewBox="0 0 28 28">
    <g clip-path="url(#a)">
        <path d="M10.489 16.363c-.178.524-.622.875-1.067 1.137-.266.087-.533.175-.8.175H2.044c-.533 0-1.066-.175-1.422-.613-.355-.35-.622-.875-.622-1.4 0-.262.089-.525.178-.787L3.467 7.35c.177-.525.622-.875 1.155-1.05.178-.087.445-.175.711-.175.267 0 .534.088.8.175.445.175.89.612 1.067 1.05L8 9.188c.089.262.089.612 0 .874a1.065 1.065 0 0 1-.622.613c-.622.262-1.334 0-1.6-.613l-.445-1.137-2.755 6.387h5.6l-.534-1.224c-.088-.263-.177-.613 0-.875.09-.263.356-.525.623-.613.266-.088.622-.088.889 0 .266.088.533.35.622.613l.71 1.662a2.14 2.14 0 0 1 0 1.488z"/>
        <path d="M26.756 17.5c-.267.087-.534.175-.8.175h-6.578c-.534 0-1.067-.175-1.422-.613-.356-.35-.623-.875-.623-1.4 0-.262.09-.525.178-.787L20.8 7.35c.178-.525.622-.875 1.155-1.05a2.504 2.504 0 0 1 1.6 0c.445.175.89.612 1.067 1.05l.8 1.837a1.18 1.18 0 0 1-.622 1.575c-.267.088-.622.175-.889 0a1.065 1.065 0 0 1-.622-.612l-.534-1.225L20 15.312h5.511l-.622-1.224c-.089-.263-.089-.613 0-.963.089-.262.355-.525.622-.613.622-.262 1.333 0 1.6.613l.711 1.662c.445 1.05 0 2.275-1.066 2.713z"/>
        <path d="M23.2 2.8h-5.067c-.8-2.187-3.2-3.325-5.333-2.537C11.556.7 10.667 1.575 10.222 2.8H5.333c-.8 0-1.422.613-1.422 1.4 0 .787.622 1.313 1.422 1.313h4.89c.444 1.137 1.333 2.1 2.577 2.537V25.2H9.778c-.8.088-1.334.7-1.334 1.488A1.5 1.5 0 0 0 9.778 28h8.8c.8-.087 1.333-.7 1.333-1.488a1.5 1.5 0 0 0-1.333-1.312h-2.933V8.05c1.155-.438 2.133-1.313 2.577-2.538h5.067c.8 0 1.422-.612 1.422-1.4C24.711 3.325 24 2.8 23.2 2.8zm-8.978 2.713h-.089c-.8 0-1.422-.7-1.333-1.4.089-.7.711-1.4 1.422-1.313.8 0 1.423.7 1.334 1.4 0 .7-.623 1.313-1.334 1.313z"/>
    </g>
    
</symbol><symbol id="icon-like" viewBox="0 0 28 28">
    <path d="M25.89 4.24c-2.954-2.935-7.852-2.935-10.806 0l-1.088 1.004-1.011-1.081A7.937 7.937 0 0 0 7.543 2C5.599 2 3.656 2.772 2.1 4.24c-2.877 2.935-2.8 7.877.233 10.89l10.34 10.349c.7.695 1.943.695 2.643 0l10.418-10.35c2.954-2.934 3.032-7.954.155-10.89zm-.077 7.105c-.311.927-.933 1.622-1.555 2.317l-.622.618-9.64 9.5L3.81 13.585a5.349 5.349 0 0 1-1.71-3.63C1.867 6.943 4.2 4.317 7.23 4.163h.7c1.4.154 2.721.772 3.654 1.776l3.266 3.244a1.132 1.132 0 0 0 1.632 0 1.115 1.115 0 0 0 0-1.622l-.855-.927.933-.927c2.177-2.162 5.675-2.162 7.774 0 .778.772 1.322 1.7 1.478 2.78.233.927.233 1.931 0 2.858z"/>
    <path d="M11.12 14.975c-.39.386-1.09.386-1.478 0L6.999 12.35c-.234-.232-.311-.463-.311-.772 0-.31.077-.54.31-.772.234-.232.467-.31.778-.31s.544.155.778.31l2.643 2.625c.31.464.31 1.159-.078 1.545z"/>
</symbol></svg>